<svg id="Capa_1" enable-background="new 0 0 512 512" height="400" fill ="#EDC580" viewBox="0 0 512 512" width="512" xmlns="http://www.w3.org/2000/svg"><g><path d="m335.996 122c-25.377 0-49.234 9.883-67.178 27.828-4.884 4.884-9.166 10.21-12.818 15.882-3.653-5.672-7.934-10.997-12.818-15.882-17.944-17.945-41.801-27.828-67.178-27.828-96.497 0-175.004 78.507-175.004 175.004v59.996 140c0 8.284 6.716 15 15 15 28.838 0 53.911-16.37 66.456-40.296 30.059-2.577 55.097-22.949 64.519-50.514 36.17-5.328 64.025-36.563 64.025-74.19v-30c0-24.813 20.187-45 45-45s45 20.187 45 45v30c0 37.627 27.855 68.862 64.025 74.189 9.421 27.565 34.459 47.938 64.519 50.514 12.545 23.927 37.618 40.297 66.456 40.297 8.284 0 15-6.716 15-15v-140-59.996c0-96.497-78.507-175.004-175.004-175.004zm-154.996 195v30c0 19.557-12.539 36.239-30 42.43v-72.43c0-8.284-6.716-15-15-15s-15 6.716-15 15v80c0 19.557-12.539 36.239-30 42.43v-2.43-80c0-8.284-6.716-15-15-15s-15 6.716-15 15v80c0 19.557-12.539 36.239-30 42.43v-122.43-59.996c0-79.955 65.049-145.004 145.004-145.004 17.363 0 33.687 6.762 45.964 19.04 12.227 12.228 18.977 28.47 19.031 45.752 0 .073-.003.145-.003.217l.003 26.499c-34.194 6.966-59.999 37.272-59.999 73.492zm270 120v-80c0-8.284-6.716-15-15-15s-15 6.716-15 15v80 2.43c-17.461-6.19-30-22.873-30-42.43v-80c0-8.284-6.716-15-15-15s-15 6.716-15 15v72.43c-17.461-6.19-30-22.873-30-42.43v-30c0-36.22-25.805-66.526-59.999-73.493l.003-26.499c0-.072-.002-.144-.003-.216.054-17.283 6.804-33.525 19.031-45.752 12.278-12.278 28.601-19.04 45.964-19.04 79.955 0 145.004 65.049 145.004 145.004v59.996 122.43c-17.461-6.191-30-22.873-30-42.43z"/><path d="m193.419 88.491c16.964 7.422 39.188 11.509 62.581 11.509s45.617-4.087 62.581-11.509c28.207-12.341 32.419-29.413 32.419-38.491s-4.212-26.15-32.419-38.491c-16.964-7.422-39.188-11.509-62.581-11.509s-45.617 4.087-62.581 11.509c-28.207 12.341-32.419 29.413-32.419 38.491s4.212 26.15 32.419 38.491zm12.024-49.498c13.065-5.715 31.492-8.993 50.557-8.993s37.492 3.278 50.557 8.993c11.02 4.822 14.443 9.755 14.443 11.007s-3.423 6.185-14.443 11.007c-13.065 5.715-31.492 8.993-50.557 8.993s-37.492-3.278-50.557-8.993c-11.02-4.822-14.443-9.755-14.443-11.007s3.423-6.185 14.443-11.007z"/></g></svg>