<svg id="Capa_1" fill ="#EDC580" enable-background="new 0 0 512 512" height="400" viewBox="0 0 512 512" width="512" xmlns="http://www.w3.org/2000/svg"><g id="XMLID_260_"><path id="XMLID_372_" d="m187.619 34.305c-2.591-.678-5.194-1.311-7.813-1.881-15.462-3.362-26.262-16.695-26.262-32.424h-30c0 14.398 4.993 28.493 14.059 39.688 5.725 7.069 12.93 12.796 21.016 16.827v184.485h-37.439l-35.425-31h-84.484l19.5 45-19.5 45h84.205l35.425-29h37.718v182.485c-8.085 4.031-15.291 9.758-21.016 16.827-9.066 11.194-14.059 25.289-14.059 39.688v2h30v-2c0-15.729 10.799-29.062 26.262-32.424 2.619-.569 5.222-1.202 7.813-1.881z"/><path id="XMLID_373_" d="m347.138 241c-2.723-47.625-19.26-93.454-47.267-130.345-22.094-29.102-50.502-51.68-82.252-65.811v33.37c56.171 30.512 94.905 92.261 99.467 162.787h-17.967v-16h-30v16h-21.575v-16h-29.925v66h29.925v-20h21.575v20h30v-20h17.825c-5.158 69.692-43.686 130.564-99.325 160.787v33.37c31.75-14.131 60.158-36.709 82.252-65.811 27.615-36.375 44.076-81.439 47.141-128.345h33.764v-30h-33.638z"/><path id="XMLID_407_" d="m410.776 317.185 99.953-62.039-99.953-62.04z"/></g></svg>