<svg id="Capa_1" fill ="#EDC580" enable-background="new 0 0 512 512" height="400" viewBox="0 0 512 512" width="512" xmlns="http://www.w3.org/2000/svg"><g><path d="m234.543 138.119c.978 3.244 3.955 5.337 7.178 5.337.717 0 1.446-.104 2.168-.321 3.966-1.195 6.211-5.38 5.016-9.346l-15.585-51.7c-1.195-3.966-5.382-6.213-9.346-5.016-3.966 1.195-6.211 5.38-5.016 9.346z"/><path d="m161.769 133.6 44.067 31.21c1.316.933 2.83 1.381 4.328 1.381 2.351 0 4.666-1.103 6.127-3.166 2.395-3.381 1.595-8.061-1.785-10.455l-44.067-31.21c-3.383-2.396-8.063-1.594-10.455 1.785-2.394 3.381-1.594 8.061 1.785 10.455z"/><path d="m312.325 270.889h-86.836c-6.414 0-11.632 5.232-11.632 11.663v27.813c0 6.431 5.218 11.663 11.632 11.663h86.836c6.414 0 11.632-5.232 11.632-11.663v-27.813c0-6.431-5.218-11.663-11.632-11.663zm-3.368 36.139h-80.1v-21.139h80.1z"/><path d="m439.361 193.116h-240.081c-15.333 0-27.806 12.49-27.806 27.843v18.365h-143.002c-10.641 0-19.023.529-22.072 7.188-3.144 6.867 2.287 13.16 9.159 21.122 38.896 45.138 120.448 79.863 162.073 86.665.083.015.167.028.251.04 16.226 2.665 17.378 10.228 17.757 12.718 1.313 8.623-4.714 21.018-13.79 31.015-.416.357-.789.761-1.117 1.2-4.693 4.933-10.112 9.198-15.72 11.997-12.874 6.389-12.874 18.704-12.874 23.341v15.28l-4.435-.014c-.024 0-.049 0-.074 0-8.248 0-16.026 3.229-21.909 9.099-5.918 5.904-9.177 13.735-9.177 22.051v18.512c0 6.871 5.589 12.461 12.458 12.461h298.966c6.87 0 12.459-5.59 12.459-12.461v-18.512c0-17.177-13.957-31.15-31.113-31.15h-4.484l-.001-15.564c.116-10.225-3.428-13.885-9.587-16.75l-.504-.235c-9.838-4.681-17.243-10.559-22.043-17.343-.184-.315-.387-.616-.613-.899-5.105-7.664-6.954-16.441-5.28-25.939 4.599-26.083 37.386-56.466 89.114-61.4 7.887-.777 11.145-4.383 11.251-12.543v-78.243c.001-15.353-12.474-27.844-27.806-27.844zm-267.888 144.656c-37.979-8.844-109.559-39.32-144.555-79.933-.765-.886-1.855-2.15-2.933-3.447 1.236-.042 2.716-.067 4.486-.067h143.001v83.447zm216.843 93.111.601.28c.244.113.533.248.785.371.07.478.145 1.315.129 2.693v15.649h-95.156c-4.143 0-7.5 3.357-7.5 7.5s3.357 7.5 7.5 7.5h114.639c8.885 0 16.113 7.245 16.113 16.15v15.974h-293.883v-15.973c0-4.303 1.694-8.363 4.77-11.432 3.051-3.043 7.068-4.718 11.31-4.718h.037 110.689c4.13 0 7.485-3.342 7.499-7.475.014-4.143-3.334-7.511-7.475-7.524l-91.235.062v-15.327c0-5.934 1.019-8.156 4.558-9.912 6.284-3.137 12.566-7.833 18.205-13.443h172.478c6.216 7.722 14.928 14.386 25.936 19.625zm-36.285-60.341c-1.602 9.082-.905 17.739 1.907 25.715h-152.025c6.418-10.28 10.067-21.531 8.556-31.456-1.073-7.054-5.685-18.894-23.996-23.927v-86.549h99.996c4.143 0 7.5-3.357 7.5-7.5s-3.357-7.5-7.5-7.5h-99.996v-18.365c0-7.082 5.745-12.844 12.806-12.844h240.081c7.062 0 12.807 5.762 12.807 12.844v18.365h-129.63c-4.143 0-7.5 3.357-7.5 7.5s3.357 7.5 7.5 7.5h129.63l.001 42.728c-58.373 6.38-94.511 41.58-100.137 73.489z"/><path d="m500.64 144.856-44.657-25.541c-3.597-2.057-8.178-.809-10.234 2.787s-.809 8.178 2.787 10.234l41.781 23.895-8.259 14.437-112.454-64.287 8.263-14.463 39.855 22.79c1.174.672 2.453.99 3.716.99 2.602 0 5.133-1.356 6.517-3.778 2.056-3.596.808-8.177-2.788-10.233l-39.86-22.793 13.956-24.426c4.717-8.232 1.856-18.771-6.387-23.498l-50.213-28.701c-4.01-2.285-8.669-2.868-13.124-1.642-4.424 1.218-8.1 4.073-10.356 8.041l-13.956 24.419-15.038-8.616c-5.553-3.103-12.67-1.157-15.9 4.393l-11.535 20.214c-1.556 2.716-1.957 5.876-1.129 8.899.825 3.014 2.768 5.518 5.443 7.036l15 8.595-13.942 24.395c-4.717 8.232-1.855 18.771 6.385 23.496l50.218 28.736c2.636 1.502 5.553 2.268 8.509 2.268 1.538 0 3.088-.208 4.613-.628 4.432-1.22 8.113-4.082 10.354-8.038l13.958-24.431 115.278 65.9c1.793 1.044 3.787 1.577 5.812 1.577 1.027 0 2.062-.138 3.084-.414 2.993-.813 5.499-2.733 7.083-5.455l11.607-20.291c3.131-5.602 1.152-12.726-4.387-15.867zm-223.227-91.202 8.263-14.481 12.107 6.938-8.273 14.475zm57.755 82.766c-.372.656-.974.905-1.299.994-.338.093-1.01.191-1.703-.204l-50.201-28.726c-1.043-.598-1.421-1.981-.82-3.029l33.338-58.333c.013-.022.028-.041.041-.063.013-.023.023-.047.036-.07l17.649-30.881c.005-.008.009-.016.014-.024.372-.656.974-.904 1.299-.994.148-.041.362-.083.614-.083.32 0 .703.067 1.093.29l50.198 28.693c1.042.599 1.42 1.982.819 3.031l-17.662 30.913c-.006.01-.012.018-.018.028s-.01.02-.015.03z"/></g></svg>