<svg height="400" viewBox="0 0 512 512" fill ="#EDC580" width="512" xmlns="http://www.w3.org/2000/svg"><path d="m109.867 95.14-32.12-28.207.941-.941a1.748 1.748 0 0 0 0-2.474l-5.136-5.137 7.977-7.981a1.715 1.715 0 0 0 .266-.352c0-.005.014-.012.017-.017l6.552-11.468a1.748 1.748 0 0 0 -.282-2.105l-21.365-21.358a1.752 1.752 0 0 0 -2.106-.283l-11.467 6.549c-.011.007-.028.026-.041.036a1.626 1.626 0 0 0 -.328.246l-10.23 10.231-2.082-2.079a7.542 7.542 0 0 0 -10.663 10.663l2.082 2.082-10.23 10.23a1.725 1.725 0 0 0 -.268.358s-.011.006-.014.012l-6.556 11.466a1.75 1.75 0 0 0 .282 2.106l21.365 21.365a1.747 1.747 0 0 0 2.105.282l11.468-6.552c.005 0 .005-.01.01-.014a1.7 1.7 0 0 0 .359-.269l7.978-7.977 5.136 5.136a1.752 1.752 0 0 0 2.475 0l.941-.941 28.207 32.119a10.474 10.474 0 0 0 7.5 3.545h.335a10.435 10.435 0 0 0 6.889-18.276zm-44.68-76.624 19.475 19.474-4.753 8.319-11.52-11.52-11.519-11.52zm-32.915 19.472a4.042 4.042 0 1 1 5.716-5.717l2.082 2.083-5.716 5.716zm21.74-12.628 1.024 1.025 22.781 22.781-7.977 7.977-20.674 20.674-23.8-23.8zm-16.021 59.3-19.475-19.472 4.753-8.318 11.52 11.52 11.52 11.519zm22.865-13.583 10.221-10.221 3.9 3.9-10.223 10.22zm47.029 36.809a6.936 6.936 0 0 1 -10.115-.328l-28.358-32.291 5.855-5.854 32.291 28.358a6.935 6.935 0 0 1 .327 10.115z"/></svg>