<?xml version="1.0" encoding="iso-8859-1"?>
<!-- Generator: Adobe Illustrator 19.0.0, SVG Export Plug-In . SVG Version: 6.00 Build 0)  -->
<svg fill ="#EDC580" xmlns="http://www.w3.org/2000/svg" xmlns:xlink="http://www.w3.org/1999/xlink" version="1.1" id="Layer_1" x="0px" y="0px" viewBox="0 0 512 512" style="enable-background:new 0 0 512 512;" xml:space="preserve" width="512" height="400">
<g>
	<path d="M301.24,72.734c-72.949,0.107-144.602,27.654-179.52,78.443c-12.698-32.96-38.469-61.8-73.61-61.8c-8.29,0-15,6.71-15,15   v64.98C14.17,173.707,0,190.696,0,210.937c0,20.24,14.17,37.23,33.11,41.58v64.98c0,8.28,6.71,15,15,15   c35.262,0,60.901-28.948,73.61-61.8c19.62,28.539,50.483,48.775,83.2,61.34l24.71,84.77c1.87,6.4,7.73,10.8,14.4,10.8h114.43   c6.67,0,12.54-4.4,14.4-10.8l24.69-84.68c54.358-20.741,102.79-63.474,102.79-121.19C500.34,132.9,409.779,72.574,301.24,72.734z    M415.89,290.157c-35.086-46.471-35.328-111.509,0-158.44C488.149,172.679,488.612,248.932,415.89,290.157z M255.28,397.606   l-16.1-55.24c39.534,8.94,83.718,9.138,124.12,0.04l-16.09,55.2H255.28z M151.33,260.267c67.486,7.418,149.603,7.603,216.24,1.31   c4.879,14.85,12.006,29.116,20.93,41.89C306.93,335.48,197.569,317.113,151.33,260.267z M63.11,298.787v-45.2h32.8   C89.01,275.086,77.14,291.716,63.11,298.787z M42.65,198.287c6.7,0,52.542,0,59.21,0c0.704,8.108,0.737,16.804,0,25.3   c-6.669,0-52.509,0-59.21,0c-6.936,0-12.65-5.649-12.65-12.65C30,203.943,35.706,198.287,42.65,198.287z M63.11,123.086   c14.03,7.07,25.9,23.7,32.8,45.2h-32.8V123.086z M388.5,118.407c-9.02,12.92-16.05,27.03-20.93,41.89   c-66.466-6.271-148.492-6.124-216.24,1.3C197.343,105.046,306.431,86.204,388.5,118.407z M360.85,232.057   c-78.245,6.991-166.668,4.382-226.32-4.1c-2.948-11.41-2.71-23.553,0-34.04c60.96-8.632,149.448-10.995,226.32-4.1   C359.024,203.783,359.023,218.079,360.85,232.057z"/>
	<path d="M319.52,356.986h-35.36c-8.28,0-15,6.72-15,15c0,8.29,6.72,15,15,15h35.36c8.29,0,15-6.71,15-15   C334.52,363.707,327.81,356.986,319.52,356.986z"/>
</g>















</svg>
