<?xml version="1.0" standalone="no"?>
<svg viewBox="0 0 200 200" xmlns="http://www.w3.org/2000/svg">
  <path fill="url(#my-cool-gradient)" d="M44.1,-54.9C57.6,-41.1,69.6,-27.7,74.9,-11.2C80.2,5.3,78.9,25.1,70.4,41.5C61.9,58,46.3,71.2,28.7,76.8C11,82.3,-8.7,80.1,-22.4,71C-36.2,61.9,-44,45.9,-49.4,31.2C-54.8,16.4,-57.7,2.8,-57.7,-12.4C-57.6,-27.6,-54.6,-44.5,-44.5,-59C-34.4,-73.4,-17.2,-85.3,-1,-84.2C15.2,-83,30.5,-68.7,44.1,-54.9Z" transform="translate(100 100)" />
  <linearGradient id="my-cool-gradient" x2="1" y2="1">
    <stop offset="0%" stop-color="#0f0f0f" />
    <!-- <stop offset="70%" stop-color="#171717" /> -->
    <stop offset="100%" stop-color="#171717" />
  </linearGradient>
</svg>
