<svg id="Capa_1" enable-background="new 0 0 512.002 512.002" height="400" fill ="#EDC580" viewBox="0 0 512.002 512.002" width="512" xmlns="http://www.w3.org/2000/svg"><g><g><path d="m511.835 173.012-8.795-47.559c-.339-1.832-1.183-3.533-2.437-4.911l-15.059-16.552c-7.945-8.736-21.003-10.609-31.053-4.458-21.769 13.33-61.559 26.449-67.913 28.503l-351.018 43.994c-3.24.405-6.079 2.368-7.602 5.258-6.863 13.016-8.298 35.576-3.899 60.581l-15.962 3.098c-5.422 1.052-8.964 6.3-7.912 11.722 1.035 5.332 6.385 8.949 11.722 7.911l16.734-3.248c2.376 7.916 5.231 15.112 8.441 21.309h-27.075c-5.523 0-10 4.478-10 10v78.313c0 5.522 4.477 10 10 10h40.714c4.631 22.295 24.426 39.102 48.075 39.102s43.444-16.806 48.075-39.102h80.548c4.631 22.295 24.426 39.102 48.075 39.102s43.444-16.806 48.075-39.102h46.006c5.523 0 10-4.478 10-10v-146.654c0-.52-.052-1.026-.128-1.524l22.88-6.555c7.181-.378 48.549-2.285 73.44 2.341 11.47 2.128 23.164-4.411 27.405-15.267l8.144-20.845c.678-1.735.858-3.625.519-5.457zm-468.003 18.136 163.21-20.455 8.288 39.623h-110.264c-3.239 0-6.278 1.569-8.154 4.211l-40.785 57.439c-6.798-11.937-10.475-25.941-12.674-39.347-2.181-13.294-3.622-28.356.379-41.471zm54.964 204.926c-16.047 0-29.102-13.055-29.102-29.101 0-9.527 4.602-18 11.699-23.311 4.856-3.633 10.88-5.787 17.397-5.787 15.831 0 29.107 13.242 29.107 29.099.001 16.045-13.054 29.1-29.101 29.1zm176.699 0c-16.046 0-29.101-13.055-29.101-29.101 0-15.839 13.254-29.099 29.103-29.099 15.86 0 29.099 13.273 29.099 29.124-.014 16.035-13.062 29.076-29.101 29.076zm84.081-39.102h-36.005c-4.74-22.824-25.749-39.5-49.001-39.077-17.451.324-33.852 10.267-42.196 25.615-2.291 4.213-3.985 8.765-4.961 13.462h-80.537c-4.667-22.459-25.153-39.101-48.08-39.101-17.585 0-34.249 9.785-42.838 25.129-2.437 4.353-4.226 9.086-5.241 13.972h-30.71v-58.312l255.208-.002c5.523 0 10-4.478 10-10s-4.477-10-10-10h-199.308l34.323-48.339h117.332c.023 0 .045.003.067.003.019 0 .038-.003.057-.003h131.89zm-23.149-146.656h-100.664l-8.81-42.118 153.651-19.257 5.41 29.254 3.144 17.013zm148.117-18.279c-.809 2.07-2.962 3.286-5.123 2.88-14.525-2.698-33.413-3.399-49.129-3.399-8.438 0-15.96.202-21.401.406l-3.13-16.924-5.616-30.394c14.756-5.025 45.429-16.162 64.79-28.017 1.873-1.146 4.318-.786 5.814.859l13.142 14.444 7.759 41.953z"/><path d="m313.602 292.477c2.063 5.037 8.045 7.497 13.06 5.41 5.033-2.095 7.493-8.006 5.41-13.05-2.079-5.034-8.028-7.501-13.06-5.41-5.018 2.086-7.508 8.019-5.41 13.05z"/></g></g></svg>