<svg id="Capa_1" enable-background="new 0 0 512 512" height="400" fill ="#EDC580" viewBox="0 0 512 512" width="512" xmlns="http://www.w3.org/2000/svg"><g><circle cx="442" cy="442" r="10"/><circle cx="70" cy="442" r="10"/><path d="m446.263 372.142-120.298-119.343-.003-10.799h20.038c5.522 0 10-4.478 10-10s-4.478-10-10-10c-21.46 0-38.522 0-60 0-5.522 0-10 4.478-10 10s4.478 10 10 10h20.008l.033 145.869c-347.483-347.313 162.674 162.733-276.12-275.939-2.119-2.118-5.081-3.18-8.056-2.881-2.981.295-5.674 1.911-7.336 4.403-22.792 34.185-18.25 80.079 10.8 109.129 27.183 27.183 68.882 32.804 102.011 15.058l66.465 66.413-37.948 37.948h-55.857c-5.522 0-10 4.478-10 10v22.917c-6.459-1.922-13.198-2.917-20-2.917-38.598 0-70 31.402-70 70s31.402 70 70 70c22.928 0 44.424-11.364 57.436-30h83.564c5.522 0 10-4.478 10-10s-4.478-10-10-10h-73.917c1.922-6.459 2.917-13.198 2.917-20s-.995-13.541-2.917-20.01h237.834c-1.922 6.469-2.917 13.208-2.917 20.01s.995 13.542 2.917 20h-73.917c-5.522 0-10 4.478-10 10s4.478 10 10 10h83.564c13.012 18.636 34.509 30 57.436 30 38.598 0 70-31.402 70-70 0-37.165-29.118-67.646-65.737-69.858zm-25.263 3.112c-14.619 4.622-27.52 13.975-36.437 26.746h-58.566l-.027-121.022zm-251-19.111 38-37.954 83.889 83.811h-121.889zm-130.528-147.705c-19.339-19.338-24.549-48.389-14.22-72.893l87.113 87.121c-24.505 10.326-53.554 5.113-72.893-14.228zm110.528 153.562v40h-22.558c-4.736-6.797-10.649-12.709-17.442-17.442v-22.558zm-80 130c-27.57 0-50-22.43-50-50s22.43-50 50-50c27.674 0 50 22.445 50 50 0 27.928-22.768 50-50 50zm372 0c-27.239 0-50-22.077-50-50 0-27.928 22.768-50 50-50 27.57 0 50 22.43 50 50s-22.43 50-50 50z"/><path d="m457 110c30.327 0 55-24.673 55-55s-24.673-55-55-55-55 24.673-55 55 24.673 55 55 55zm0-90c19.299 0 35 15.701 35 35s-15.701 35-35 35-35-15.701-35-35 15.701-35 35-35z"/><path d="m127.893 130.146c-3.233 4.478-2.225 10.729 2.253 13.962 4.502 3.25 10.746 2.2 13.962-2.253 45.942-63.618 122.787-96.553 200.541-85.946 5.48.747 10.514-3.085 11.26-8.557.746-5.473-3.085-10.514-8.557-11.26-85.083-11.609-169.182 24.434-219.459 94.054z"/><circle cx="256" cy="471.999" r="10"/></g></svg>