<svg height="400px" viewBox="0 0 512 512" fill ="#EDC580" width="512px" xmlns="http://www.w3.org/2000/svg"><path d="m483.691406 185.515625c-15.40625 0-27.96875 12.378906-28.289062 27.710937-4.738282 16.992188-26.402344 33.839844-61.210938 47.535157-5.140625 2.019531-7.667968 7.828125-5.644531 12.964843 2.019531 5.140626 7.828125 7.667969 12.964844 5.644532 26.066406-10.253906 45.734375-22.386719 58.355469-35.84375 5.828124 47.796875.078124 81.355468-17.414063 102.21875-14.683594 17.515625-38.363281 27.324218-72.066406 29.792968l-9.214844-34.394531c-1.433594-5.335937-6.914063-8.503906-12.25-7.074219-5.332031 1.433594-8.5 6.914063-7.070313 12.25l8 29.851563h-61.796874l-9.386719-35.027344c-1.429688-5.335937-6.914063-8.503906-12.246094-7.070312-5.335937 1.429687-8.5 6.910156-7.070313 12.246093l7.996094 29.851563h-58.695312c-1.578125 0-3.125-.015625-4.667969-.027344l-9.378906-35c-1.429688-5.335937-6.914063-8.503906-12.246094-7.070312-5.335937 1.429687-8.5 6.910156-7.070313 12.246093l7.804688 29.125c-49.914062-2.980468-81.195312-15.375-99.796875-39.09375-13.839844-17.648437-21.699219-42.355468-24.929687-80.667968 4.328124 4.726562 9.28125 9.175781 14.855468 13.34375 37.757813 28.222656 99.003906 39.339844 160.898438 39.183594.234375.015624.464844.035156.703125.035156.292969 0 .578125-.019532.867187-.042969 9.714844-.054687 19.441406-.386719 29.089844-.96875h.042969c.402343 0 .796875-.03125 1.191406-.078125 21.84375-1.375 43.273437-4.046875 63.261719-7.757812 5.429687-1.007813 9.015625-6.226563 8.007812-11.65625-1.007812-5.429688-6.226562-9.007813-11.65625-8.007813-16.640625 3.089844-33.726562 5.351563-50.804687 6.765625v-58.21875h125.003906c5.523437 0 10-4.476562 10-10 0-5.519531-4.476563-10-10-10-6.46875 0-21.621094-24.671875-21.621094-72.519531 0-47.847657 15.152344-72.523438 21.621094-72.523438 5.523437 0 10-4.476562 10-10 0-5.519531-4.476563-10-10-10h-125.003906v-32.738281c0-5.523438-4.476563-10-10-10h-30c-5.523438 0-10 4.476562-10 10v32.738281h-93.382813c-6.429687 0-15.894531 2.773438-24.460937 16-3.003907 4.632813-1.679688 10.824219 2.953125 13.828125 4.636718 3.003906 10.828125 1.679688 13.832031-2.953125 3.285156-5.074219 6.1875-6.875 7.675781-6.875h56.445313c-1.894531 3.574219-3.683594 7.742188-5.3125 12.613281-5.339844 15.964844-8.28125 37.238282-8.28125 59.90625 0 25.738282 3.914062 54.074219 13.664062 72.519532h-56.515625c-6.464844 0-21.621094-24.671875-21.621094-72.519532 0-2.066406.035157-4.210937.101563-6.371093.167969-5.519531-4.171875-10.128907-9.691406-10.296875-5.527344-.148438-10.132813 4.167968-10.300781 9.6875-.070313 2.363281-.105469 4.710937-.105469 6.980468 0 45.976563 14.292969 92.519532 41.617187 92.519532h93.382813v59.894531c-11.507813-.195313-22.800781-.800781-33.714844-1.839844-45.976563-4.378906-82.597656-15.902343-105.910156-33.324219-17-12.707031-26.617188-28.484374-28.605469-46.890624-.410156-15.25-12.9375-27.535157-28.289062-27.535157-15.605469.003907-28.304688 12.699219-28.304688 28.308594 0 4.964844 1.3125 9.855469 3.792969 14.15625 1.851562 3.207031 5.210937 5 8.667969 5 1.695312 0 3.417968-.433594 4.992187-1.34375 4.78125-2.761719 6.417969-8.875 3.660156-13.65625-.730469-1.261719-1.113281-2.699219-1.113281-4.15625 0-4.578125 3.726562-8.304687 8.304688-8.304687 4.582031 0 8.308593 3.722656 8.308593 8.304687-.03125 53.113281 3.699219 107.054687 30.941407 141.796875 23.25 29.652344 60.992187 44.460938 120.976562 47.058594l3.003906 11.214844c-4.851562 1.730468-8.902344 5.085937-11.515625 9.609374-2.914062 5.046876-3.691406 10.914063-2.1875 16.523438l9.429688 35.1875c2.605469 9.722656 11.429687 16.148438 21.046875 16.148438 1.863281 0 3.753906-.238282 5.632812-.742188l15.871094-4.253906c5.609375-1.503906 10.304688-5.109375 13.21875-10.15625s3.691406-10.917969 2.1875-16.523438l-9.429688-35.1875c-2.953124-11.023437-13.902343-17.804687-24.9375-15.792968l-1.5-5.605469h63.359376l2.886718 10.785156c-10.5625 3.773437-16.652344 15.121094-13.699218 26.140625l9.425781 35.1875c2.605469 9.722656 11.433593 16.152344 21.050781 16.152344 1.859375 0 3.75-.242188 5.632812-.746094l15.867188-4.253906c5.609375-1.5 10.304688-5.109375 13.21875-10.15625s3.691406-10.914063 2.1875-16.523438l-9.429688-35.1875c-2.953124-11.023437-13.898437-17.800781-24.9375-15.792968l-1.5-5.605469h59.054688c.921875 0 1.824219-.011719 2.734375-.019531l2.898437 10.8125c-4.851562 1.730468-8.902343 5.085937-11.515624 9.609374-2.914063 5.046876-3.691407 10.917969-2.1875 16.523438l9.425781 35.1875c2.605469 9.722656 11.433593 16.148438 21.050781 16.148438 1.859375 0 3.75-.238282 5.632812-.742188l15.867188-4.253906c5.609375-1.503906 10.304688-5.109375 13.21875-10.15625s3.691406-10.917969 2.1875-16.523438l-9.429688-35.1875c-2.953124-11.023437-13.898437-17.804687-24.9375-15.792968l-1.769531-6.605469c37.410157-3.382813 64.40625-15.433594 82.132813-36.574219 24.421875-29.125 30.296875-73.753906 18.484375-140.449219-.09375-.535156-.230469-1.058593-.410157-1.570312-.265624-.753907-.417968-1.546875-.457031-2.355469v-.007812c-.007812-.132813-.007812-.261719-.007812-.386719 0-4.582031 3.722656-8.308594 8.304687-8.308594 4.582032 0 8.308594 3.726563 8.308594 8.308594 0 1.457031-.386719 2.894531-1.113281 4.152343-2.761719 4.785157-1.125 10.898438 3.660156 13.660157 1.574219.910156 3.292969 1.34375 4.988281 1.34375 3.457032-.003907 6.820313-1.796875 8.671875-5.003907 2.480469-4.296874 3.789063-9.191406 3.789063-14.152343.003906-15.609375-12.695313-28.308594-28.304688-28.308594zm-110.691406 22.765625h-63.746094c-4.609375 0-9.90625-7.265625-13.820312-18.960938-4.605469-13.769531-7.25-33.292968-7.25-53.5625 0-20.269531 2.644531-39.789062 7.25-53.558593 3.914062-11.695313 9.210937-18.960938 13.820312-18.960938h63.746094c-9.773438 17.839844-14.792969 45.28125-14.792969 72.519531 0 27.242188 5.019531 54.683594 14.792969 72.523438zm-128.175781-187.78125h10v22.738281h-10zm-43.285157 168.820312c-4.605468-13.769531-7.25-33.292968-7.25-53.5625 0-20.269531 2.644532-39.789062 7.25-53.558593 3.914063-11.695313 9.210938-18.960938 13.816407-18.960938h66.421875c-1.890625 3.574219-3.679688 7.742188-5.308594 12.613281-5.339844 15.964844-8.285156 37.238282-8.285156 59.90625 0 25.738282 3.914062 54.074219 13.667968 72.519532h-66.492187c-4.609375.003906-9.90625-7.261719-13.820313-18.957032zm53.285157 38.960938v59.46875c-3.34375.144531-6.675781.257812-10 .335938v-59.808594h10zm-40.09375 193.140625c.789062 0 1.53125.53125 1.742187 1.320313l9.425782 35.1875c.15625.574218-.015626 1.050781-.1875 1.347656-.171876.296875-.496094.683594-1.074219.839844l-15.867188 4.25c-.9375.253906-1.9375-.328126-2.1875-1.261719l-9.429687-35.1875c-.15625-.574219.019531-1.050781.191406-1.347657.167969-.296874.496094-.683593 1.070312-.839843l15.867188-4.253907c.152344-.039062.300781-.054687.449219-.054687zm84.0625 0c.785156 0 1.53125.53125 1.742187 1.320313l9.429688 35.1875c.152344.574218-.019532 1.050781-.191406 1.347656-.171876.296875-.5.6875-1.074219.839844l-15.867188 4.25c-.933593.253906-1.9375-.324219-2.1875-1.261719l-9.429687-35.1875c-.25-.933594.328125-1.933594 1.261718-2.1875l15.871094-4.25c.148438-.042969.296875-.058594.445313-.058594zm82.5 0c.789062 0 1.53125.53125 1.742187 1.320313l9.429688 35.1875c.152344.574218-.019532 1.050781-.191406 1.347656-.171876.296875-.496094.683594-1.070313.839844l-15.871094 4.25c-.933593.253906-1.9375-.328126-2.1875-1.261719l-9.425781-35.1875c-.15625-.574219.015625-1.050781.1875-1.347657.171875-.296874.5-.683593 1.074219-.839843l15.867187-4.253907c.148438-.039062.296875-.054687.445313-.054687zm0 0"/><path d="m101.117188 111.40625c.527343.082031 1.050781.125 1.566406.125 4.835937 0 9.085937-3.503906 9.855468-8.433594.988282-5.433594-2.617187-10.640625-8.050781-11.628906-5.429687-.984375-10.640625 2.617188-11.628906 8.050781-.023437.144531-.050781.296875-.074219.4375-.851562 5.457031 2.875 10.597657 8.332032 11.449219zm0 0"/><path d="m380 279.464844c0 5.523437-4.476562 10-10 10s-10-4.476563-10-10c0-5.523438 4.476562-10 10-10s10 4.476562 10 10zm0 0"/></svg>