<svg id="Capa_1" enable-background="new 0 0 512 512" height="400" fill ="#EDC580" viewBox="0 0 512 512" width="512" xmlns="http://www.w3.org/2000/svg"><g><path d="m512 0h-55.414c-57.897 0-105 47.103-105 105v8.778c-7.368-8.644-15.88-16.284-25.308-22.673 1.448-5.706 2.227-11.676 2.227-17.827 0-40.099-32.623-72.722-72.722-72.722s-72.722 32.623-72.722 72.722c0 6.243.802 12.299 2.293 18.082-9.281 6.338-17.669 13.888-24.941 22.418v-8.778c0-57.897-47.103-105-105-105h-55.413v19.867c0 16.871 5.603 32.456 15.041 45h-15.041v19.867c0 16.871 5.603 32.456 15.041 45h-15.041v19.867c0 16.863 5.597 32.441 15.027 44.982h-15.027v19.867c0 16.879 5.609 32.471 15.055 45.018h-15.055v19.867c0 16.879 5.609 32.471 15.055 45.018h-15.055v19.867c0 16.88 5.609 32.471 15.056 45.019h-15.056v19.867c0 41.355 33.645 75 75 75h14.336c8.271 0 15 6.729 15 15v12.894h30v-12.893c0-24.813-20.187-45-45-45h-14.336c-21.33 0-39.241-14.917-43.85-34.867h49.808v-30h-5.958v-.019c-21.33 0-39.241-14.917-43.85-34.867h49.808v-30h-5.958v-.018c-21.33 0-39.241-14.917-43.85-34.867h49.808v-30h-5.958v-.018c-21.33 0-39.241-14.917-43.85-34.867h43.138c.238.002.473.018.712.018v-.018h5.958v-30h-6.786c-20.963-.382-38.473-15.159-43.021-34.849h49.808v-30h-5.959c-21.33 0-39.241-14.917-43.85-34.867h49.808v-30h-5.958c-21.33-.001-39.241-14.918-43.85-34.868h24.264c41.355 0 75 33.645 75 75v193.361c0 69.249 56.338 125.586 125.586 125.586s125.586-56.338 125.586-125.586v-193.361c0-41.355 33.645-75 75-75h24.264c-4.608 19.95-22.52 34.867-43.85 34.867h-5.958v30h49.808c-4.608 19.95-22.52 34.867-43.85 34.867h-5.958v30h49.808c-4.548 19.69-22.058 34.468-43.021 34.849h-6.786v30h5.957v.018c.239 0 .474-.016.712-.018h43.138c-4.608 19.95-22.52 34.867-43.85 34.867v.018h-5.958v30h49.808c-4.608 19.95-22.52 34.867-43.85 34.867v.018h-5.958v30h49.808c-4.608 19.95-22.52 34.867-43.85 34.867v.019h-5.958v30h49.808c-4.608 19.95-22.52 34.867-43.85 34.867h-14.336c-24.813 0-45 20.187-45 45v12.894h30v-12.893c0-8.271 6.729-15 15-15h14.336c41.355 0 75-33.645 75-75v-19.867h-15.056c9.447-12.547 15.056-28.139 15.056-45.019v-19.867h-15.055c9.446-12.547 15.055-28.139 15.055-45.018v-19.867h-15.055c9.446-12.547 15.055-28.139 15.055-45.018v-19.867h-15.027c9.43-12.541 15.027-28.119 15.027-44.982v-19.867h-15.041c9.438-12.544 15.041-28.129 15.041-45v-19.868h-15.041c9.438-12.544 15.041-28.129 15.041-45zm-298.938 73.278c0-23.557 19.165-42.722 42.722-42.722s42.722 19.165 42.722 42.722c0 1.222-.068 2.427-.17 3.623-13.234-4.753-27.486-7.35-42.335-7.35-15.006 0-29.404 2.65-42.756 7.499-.111-1.244-.183-2.499-.183-3.772zm42.938 26.273c50.876 0 92.591 39.955 95.427 90.134-21.081-1.131-53.281-6.185-69.695-21.922-7.221-6.924-10.732-15.382-10.732-25.857h-30c0 10.475-3.511 18.933-10.732 25.857-16.413 15.737-48.613 20.792-69.695 21.923 2.836-50.179 44.551-90.135 95.427-90.135zm95.586 198.81c0 52.707-42.88 95.586-95.586 95.586s-95.586-42.88-95.586-95.586v-73.223-5.451c6.509-.293 14.588-.919 23.363-2.2 29.687-4.333 52.295-13.758 67.197-28.016 1.799-1.721 3.467-3.508 5.025-5.348 1.558 1.841 3.227 3.627 5.025 5.348 14.902 14.258 37.511 23.684 67.197 28.016 8.776 1.281 16.854 1.907 23.363 2.2v5.451 73.223z"/><path d="m195.802 230.74h30v45.144h-30z" transform="matrix(.222 -.975 .975 .222 -82.912 402.765)"/><path d="m278.626 238.312h45.144v30h-45.144z" transform="matrix(.975 -.222 .222 .975 -48.624 73.002)"/><path d="m201.854 334.214h7.146v19.919h30v-19.919h34v19.919h30v-19.919h7.146v-30h-108.292z"/><path d="m256.013 467.705c-13.36-17.464-34.4-28.758-58.037-28.758v30c23.563 0 42.756 19.033 43.037 42.531-.001.174-.013.345-.013.52v.002h.026l30-.002c0-.174-.012-.346-.013-.52.281-23.498 19.474-42.531 43.037-42.531v-30c-23.637 0-44.676 11.294-58.037 28.758z"/></g></svg>