<svg id="Capa_1" enable-background="new 0 0 510.845 510.845" fill ="#EDC580" height="512" viewBox="0 0 510.845 510.845" width="512" xmlns="http://www.w3.org/2000/svg"><g><path d="m503.182 128.133-32.565-18.257c-1.94-6.25-4.452-12.249-7.463-17.945l10.131-35.979c1.462-5.194.001-10.791-3.814-14.607-3.816-3.816-9.413-5.279-14.608-3.816l-35.98 10.131c-5.697-3.012-11.696-5.523-17.946-7.463l-18.256-32.566c-2.639-4.707-7.631-7.631-13.027-7.631s-10.388 2.924-13.027 7.632l-18.255 32.564c-6.25 1.94-12.249 4.452-17.946 7.463l-35.98-10.131c-5.197-1.465-10.792 0-14.608 3.816s-5.277 9.413-3.814 14.606l10.131 35.979c-3.011 5.696-5.523 11.696-7.463 17.945l-32.564 18.256c-4.708 2.639-7.633 7.631-7.633 13.027s2.925 10.389 7.632 13.026l32.565 18.256c2.07 6.667 4.783 13.055 8.068 19.088l-81.886 81.887c-2.929 2.93-2.929 7.678 0 10.607 1.464 1.464 3.384 2.196 5.303 2.196s3.839-.732 5.303-2.196l79.579-79.579c6.073 8.098 13.279 15.299 21.383 21.366l-19.392 19.392c-2.929 2.929-2.929 7.678 0 10.606 1.464 1.465 3.384 2.197 5.303 2.197s3.839-.732 5.303-2.196l21.71-21.709c6.009 3.264 12.368 5.962 19.005 8.023l18.256 32.566c2.639 4.707 7.63 7.63 13.026 7.63s10.388-2.923 13.027-7.631l18.255-32.565c6.25-1.94 12.249-4.452 17.945-7.463l35.979 10.13c1.333.376 2.691.559 4.04.559 3.909 0 7.73-1.536 10.567-4.372 3.816-3.816 5.279-9.414 3.816-14.609l-10.13-35.978c3.011-5.697 5.523-11.696 7.463-17.946l32.565-18.256c4.708-2.638 7.632-7.63 7.632-13.026s-2.923-10.389-7.63-13.027zm-44.369-76.132-6.561 23.301c-4.94-6.183-10.558-11.801-16.741-16.741zm-89.158-36.931 11.808 21.063c-3.878-.433-7.817-.664-11.809-.664s-7.93.23-11.808.663zm-89.159 36.93 23.301 6.561c-6.183 4.94-11.801 10.558-16.741 16.741zm-36.931 89.158 21.063-11.808c-.433 3.878-.663 7.817-.663 11.809s.23 7.93.663 11.808zm35.4.001c0-50.006 40.683-90.689 90.689-90.689s90.689 40.684 90.689 90.689-40.683 90.688-90.689 90.688-90.689-40.682-90.689-90.688zm90.688 126.089-11.808-21.064c3.878.433 7.817.664 11.809.664s7.93-.23 11.808-.664zm89.159-36.931-23.301-6.561c6.183-4.94 11.801-10.558 16.741-16.741zm15.867-77.349c.433-3.878.663-7.817.663-11.809s-.23-7.93-.663-11.808l21.063 11.809z"/><path d="m325.638 124.958c-2.928-2.929-7.677-2.93-10.606-.001l-10.713 10.713c-1.407 1.407-2.197 3.314-2.197 5.304s.79 3.896 2.197 5.304l10.254 10.254c1.464 1.464 3.384 2.196 5.303 2.196s3.839-.732 5.303-2.197c2.929-2.929 2.929-7.678 0-10.606l-4.951-4.95 5.41-5.409c2.929-2.93 2.929-7.679 0-10.608z"/><path d="m363.033 95.458 4.951-4.951 5.41 5.41c1.464 1.464 3.384 2.196 5.303 2.196s3.839-.732 5.303-2.197c2.929-2.929 2.929-7.678 0-10.606l-10.713-10.713c-2.929-2.928-7.678-2.928-10.606 0l-10.254 10.254c-2.929 2.929-2.929 7.678 0 10.606 2.928 2.93 7.677 2.929 10.606.001z"/><path d="m413.041 154.279c1.464 1.465 3.384 2.197 5.303 2.197s3.839-.732 5.303-2.196l10.713-10.713c2.929-2.929 2.929-7.678 0-10.606l-10.254-10.255c-2.929-2.93-7.678-2.929-10.606-.001-2.929 2.929-2.929 7.678 0 10.606l4.951 4.952-5.41 5.409c-2.929 2.93-2.929 7.679 0 10.607z"/><path d="m375.998 204.64 10.254-10.254c2.929-2.929 2.929-7.678 0-10.606-2.928-2.93-7.677-2.929-10.606-.001l-4.951 4.951-5.41-5.41c-2.929-2.928-7.678-2.929-10.606.001-2.929 2.929-2.929 7.678 0 10.606l10.713 10.713c1.464 1.464 3.384 2.196 5.303 2.196s3.839-.732 5.303-2.196z"/><path d="m264.39 267.859-74.554 74.555-21.374-21.374 14.358-14.357c2.929-2.93 2.929-7.678 0-10.607-2.929-2.928-7.678-2.928-10.606 0l-16.473 16.473c-4.622-.693-9.502.718-13.053 4.268l-75.831 75.832c-.001.001-.003.002-.004.003s-.002.002-.003.004l-23.467 23.467c-1.421-.259-2.874-.397-4.349-.397-6.403 0-12.423 2.494-16.951 7.021-7.001 7.002-8.757 17.292-5.268 25.945l-8.273 8.272c-11.346 11.346-11.346 29.807 0 41.152l4.221 4.221c5.673 5.673 13.123 8.509 20.576 8.509 7.45 0 14.903-2.837 20.575-8.509l8.273-8.273c2.877 1.16 5.935 1.742 8.994 1.742 6.139 0 12.278-2.337 16.951-7.01 5.778-5.779 7.974-13.796 6.608-21.285l23.481-23.481c.002-.001.003-.003.005-.004s.003-.003.005-.005l75.831-75.831c2.878-2.878 4.463-6.705 4.463-10.774 0-.774-.075-1.535-.188-2.286l76.66-76.661c2.929-2.93 2.929-7.678 0-10.607-2.929-2.93-7.678-2.93-10.607-.003zm-125.683 134.47-30.16-30.16 15.178-15.178 30.16 30.16zm-25.785 25.785-30.159-30.16 15.178-15.178 30.16 30.16zm-55.944-4.375 15.178-15.178 30.159 30.16-15.178 15.178zm-33.609 67.99-4.221-4.221c-5.497-5.497-5.497-14.44 0-19.938l6.928-6.928 24.159 24.159-6.928 6.928c-5.497 5.498-14.441 5.498-19.938 0zm54.156-13.541c-3.498 3.498-9.191 3.498-12.689 0l-32.156-32.156c-3.489-3.5-3.486-9.185.01-12.68 1.694-1.694 3.947-2.628 6.344-2.628s4.65.934 6.345 2.629l16.073 16.073 16.073 16.074c1.694 1.694 2.627 3.947 2.627 6.343.001 2.397-.933 4.65-2.627 6.345zm105.929-120.606-18.962 18.962-30.16-30.16 18.961-18.961c.094-.094.245-.094.337 0l29.823 29.823c.024.024.069.069.069.168s-.044.145-.068.168z"/></g></svg>