<svg id="Capa_1" enable-background="new 0 0 512 512" height="400" fill ="#EDC580" viewBox="0 0 512 512" width="512" xmlns="http://www.w3.org/2000/svg"><g><g><circle cx="256" cy="256" r="12.122"/><path d="m467.563 346.157-23.249-13.423 1.301-2.253c2.071-3.587.842-8.174-2.745-10.245l-25.192-14.545c4.91-16.038 7.453-32.836 7.453-49.691 0-17.286-2.612-33.972-7.453-49.691l25.193-14.545c3.587-2.071 4.816-6.658 2.745-10.245l-1.301-2.253 23.249-13.423c13.229-7.638 17.777-24.614 10.14-37.843-7.639-13.229-24.612-17.778-37.843-10.14l-23.249 13.423-1.301-2.253c-2.07-3.587-6.659-4.816-10.245-2.745l-25.282 14.596c-22.679-24.369-52.439-42.06-85.978-49.748v-29.084c0-4.142-3.357-7.5-7.5-7.5h-2.602v-26.846c-.001-15.275-12.428-27.703-27.704-27.703s-27.703 12.428-27.703 27.703v26.846h-2.602c-4.142 0-7.5 3.358-7.5 7.5v29.062c-11.043 2.524-21.821 6.157-32.257 10.915-3.769 1.718-5.431 6.167-3.713 9.936s6.167 5.432 9.936 3.713c20.092-9.16 41.571-13.804 63.839-13.804 84.987 0 154.13 69.143 154.13 154.13 0 49.018-23.658 95.565-63.284 124.514-3.345 2.443-4.076 7.136-1.632 10.48 1.468 2.01 3.749 3.076 6.062 3.076 1.535 0 3.084-.47 4.418-1.444 8.708-6.361 16.789-13.58 24.135-21.48l25.236 14.57c1.182.682 2.471 1.006 3.743 1.006 2.592 0 5.113-1.346 6.502-3.751l1.301-2.253 23.249 13.423c4.352 2.513 9.107 3.706 13.805 3.706 9.581 0 18.913-4.969 24.038-13.846 7.637-13.231 3.088-30.208-10.14-37.845zm-224.266-318.454c0-7.004 5.699-12.703 12.703-12.703 7.005 0 12.703 5.699 12.703 12.703v26.846h-25.406zm-10.102 60.682v-18.836h45.609v18.864c-7.461-1.01-15.071-1.543-22.805-1.543-7.692 0-15.301.508-22.804 1.515zm214.165 42.465c6.063-3.5 13.85-1.417 17.353 4.65 3.502 6.066 1.417 13.851-4.649 17.353l-23.249 13.423-12.703-22.003zm-41.29 12.175 21.503 37.245v.001.001l1.3 2.252-16.347 9.438c-5.841-14.225-13.564-27.485-22.863-39.466zm-16.362 216.504c6.254-8.058 11.794-16.661 16.485-25.694 2.332-4.491 4.456-9.09 6.369-13.777l16.312 9.418-1.3 2.252v.001s0 .001 0 .001l-21.503 37.245zm75.004 16.971c-3.503 6.065-11.287 8.151-17.353 4.65l-23.249-13.423 12.703-22.003 23.249 13.423c6.067 3.502 8.152 11.287 4.65 17.353z"/><path d="m318.001 397.154c-19.581 8.61-40.441 12.976-62.001 12.976-84.987 0-154.13-69.143-154.13-154.13 0-48.934 22.476-93.887 61.665-123.334 3.312-2.488 3.979-7.19 1.491-10.501s-7.19-3.978-10.501-1.491c-8.031 6.035-15.515 12.81-22.36 20.177l-25.229-14.566c-3.587-2.072-8.174-.842-10.245 2.745l-1.301 2.253-23.249-13.423c-6.409-3.7-13.874-4.684-21.022-2.768-7.147 1.915-13.122 6.499-16.821 12.908-7.638 13.229-3.088 30.206 10.14 37.843l23.249 13.423-1.301 2.253c-2.071 3.587-.842 8.174 2.745 10.245l25.146 14.518c-4.918 15.972-7.407 32.604-7.407 49.718 0 17.286 2.612 33.972 7.453 49.691l-25.193 14.545c-3.587 2.071-4.816 6.658-2.745 10.245l1.301 2.253-23.249 13.423c-13.228 7.637-17.777 24.614-10.139 37.843 3.7 6.409 9.674 10.993 16.821 12.908 2.387.64 4.809.956 7.215.956 4.8 0 9.538-1.259 13.807-3.724l23.249-13.423 1.301 2.253c1.389 2.406 3.91 3.751 6.502 3.751 1.272 0 2.562-.324 3.743-1.006l25.282-14.596c22.679 24.369 52.439 42.061 85.977 49.748v29.085c0 4.142 3.358 7.5 7.5 7.5h2.602v26.846c0 15.274 12.428 27.702 27.703 27.702s27.703-12.428 27.703-27.703v-26.846h2.602c4.143 0 7.5-3.358 7.5-7.5v-29.063c10.327-2.36 20.427-5.69 30.233-10.003 3.792-1.667 5.515-6.093 3.847-9.885-1.666-3.79-6.093-5.512-9.884-3.846zm-266.063-244.301c-6.066-3.502-8.152-11.287-4.65-17.353s11.287-8.151 17.353-4.65l23.249 13.423-12.703 22.003zm31.188 29.671 1.3-2.252s0 0 0-.001v-.001l21.503-37.245 16.364 9.448c-6.483 8.356-12.2 17.294-16.996 26.683-2.146 4.201-4.096 8.465-5.87 12.781zm-18.485 198.626c-6.066 3.504-13.851 1.417-17.353-4.65-3.502-6.066-1.416-13.851 4.65-17.353l23.249-13.423 12.703 22.003zm41.29-12.175-21.504-37.245v-.001s0 0-.001-.001l-1.3-2.252 16.347-9.438c5.841 14.225 13.564 27.485 22.863 39.466zm162.772 115.322c0 7.004-5.698 12.703-12.703 12.703-7.004 0-12.703-5.699-12.703-12.703v-26.846h25.406zm10.102-41.846h-45.609v-18.864c7.461 1.01 15.071 1.543 22.805 1.543 7.69 0 15.297-.516 22.805-1.524v18.845z"/><path d="m256 137.38c-65.407 0-118.62 53.213-118.62 118.62s53.213 118.62 118.62 118.62c14.223 0 28.141-2.497 41.367-7.421 3.882-1.445 5.856-5.764 4.411-9.646-1.445-3.881-5.764-5.854-9.646-4.412-4.084 1.521-8.248 2.762-12.47 3.75v-59.262c.187-.107.373-.213.558-.321l51.316 29.627c-3.424 3.633-7.131 7.05-11.113 10.214-3.243 2.577-3.783 7.295-1.206 10.538 2.576 3.242 7.294 3.783 10.538 1.206 28.512-22.656 44.864-56.514 44.864-92.892.001-65.408-53.212-118.621-118.619-118.621zm-93.743 162.74 48.612-28.066c1.975 5.536 4.944 10.602 8.687 14.99l-48.612 28.066c-3.294-4.726-6.205-9.737-8.687-14.99zm-9.877-44.12c0-10.41 1.55-20.464 4.419-29.951l51.302 29.62c-.001.111-.008.22-.008.331s.008.22.008.331l-51.302 29.62c-2.869-9.487-4.419-19.541-4.419-29.951zm18.564-59.11 48.612 28.066c-3.743 4.388-6.712 9.453-8.687 14.99l-48.612-28.066c2.482-5.253 5.393-10.264 8.687-14.99zm52.149 59.11c0-18.145 14.762-32.907 32.907-32.907s32.906 14.762 32.906 32.907-14.761 32.907-32.906 32.907-32.907-14.762-32.907-32.907zm126.651-44.12-48.613 28.067c-1.975-5.537-4.944-10.602-8.687-14.99l48.613-28.066c3.294 4.725 6.205 9.736 8.687 14.989zm-45.846 43.789 51.303-29.62c2.87 9.486 4.419 19.54 4.419 29.951 0 10.307-1.512 20.38-4.393 29.966l-51.329-29.635c.001-.111.008-.22.008-.331s-.007-.22-.008-.331zm27.589-70.574-51.266 29.598c-.185-.109-.372-.215-.558-.321v-59.262c20.171 4.729 38.088 15.369 51.824 29.985zm-66.824-32.35v56.148c-2.812-.516-5.704-.8-8.663-.8s-5.851.284-8.663.799v-56.148c2.857-.238 5.745-.365 8.663-.365 2.918.001 5.806.129 8.663.366zm-32.325 2.364v59.262c-.187.107-.374.213-.559.322l-51.265-29.598c13.736-14.616 31.653-25.256 51.824-29.986zm-51.825 171.797 51.265-29.598c.185.109.372.215.559.322v59.262c-20.17-4.731-38.087-15.371-51.824-29.986zm84.15 32.346c-2.871.237-5.758.368-8.663.368-2.917 0-5.805-.128-8.663-.365v-56.148c2.812.516 5.704.799 8.663.799s5.851-.284 8.663-.8zm27.781-72.208c3.743-4.388 6.712-9.453 8.687-14.99l48.661 28.095c-2.46 5.224-5.36 10.239-8.677 14.995z"/></g></g></svg>