<svg id="Capa_1" enable-background="new 0 0 512 512" fill ="#EDC580" height="400" viewBox="0 0 512 512" width="512" xmlns="http://www.w3.org/2000/svg"><g><path d="m206 250h35v95c0 8.284 6.716 15 15 15s15-6.716 15-15v-95h35c8.284 0 15-6.716 15-15s-6.716-15-15-15h-35v-35c0-8.284-6.716-15-15-15s-15 6.716-15 15v35h-35c-8.284 0-15 6.716-15 15s6.716 15 15 15z"/><path d="m511.103 239.889c-12.372-34.136-37.022-85.3-84.204-135.195-57.199-60.489-122.041-89.938-166.366-103.992-2.949-.936-6.117-.936-9.066 0-44.324 14.054-109.167 43.503-166.365 103.992-47.181 49.894-71.832 101.059-84.204 135.195-1.246 3.438-1.193 7.213.148 10.615l69.954 177.349v69.147c0 8.284 6.716 15 15 15h340c8.284 0 15-6.716 15-15v-69.148l69.954-177.348c1.342-3.402 1.395-7.177.149-10.615zm-255.103-209.119c24.096 7.996 54.036 20.781 85 41.013v338.217h-170v-338.218c30.965-20.231 60.905-33.016 85-41.012zm-149.101 94.536c11.133-11.773 22.581-22.273 34.102-31.634v316.328h-44.793l-65.141-165.148c10.359-26.97 32.84-74.081 75.832-119.546zm304.101 356.694h-310v-42h310zm4.792-72h-44.792v-316.328c11.52 9.362 22.969 19.861 34.102 31.634 42.991 45.465 65.473 92.576 75.832 119.545z"/></g></svg>