<?xml version="1.0" encoding="iso-8859-1"?>
<!-- Generator: Adobe Illustrator 19.0.0, SVG Export Plug-In . SVG Version: 6.00 Build 0)  -->
<svg version="1.1" id="Capa_1" xmlns="http://www.w3.org/2000/svg" xmlns:xlink="http://www.w3.org/1999/xlink" x="0px" y="0px"
	 viewBox="0 0 512 512" style="enable-background:new 0 0 512 512;" xml:space="preserve" fill ="#EDC580">
<g>
	<g>
		<path d="M441.51,395.992c-5.52,0-9.999,4.48-9.999,9.999s4.48,9.999,9.999,9.999c5.53,0,9.999-4.48,9.999-9.999
			S447.04,395.992,441.51,395.992z"/>
	</g>
</g>
<g>
	<g>
		<path d="M511.517,306.087c0-39.161-22.213-67.996-59.419-77.136c-48.744-11.975-110.93,12.229-142.825,64.402
			c-13.273-4.881-26.939-7.355-40.743-7.355c-20.625,0-49.195,5.591-71.567,17.633c-1.106-13.328-2.699-24.064-3.988-33.403
			c-4.948-34.52,9.843-58.895,10.399-60.605c16.205,10.623,35.261,16.379,54.826,16.379c55.137,0,99.994-44.857,99.994-99.994
			c0-55.137-44.857-99.994-99.994-99.994c-49.692,0-91.582,36.34-98.863,85.076C103.395,169.71,55.615,235.613,17.302,307.031
			C0.664,338.066-5.475,355.411,5.57,391.257c4.737,15.366,11.434,25.346,20.474,30.505c74.49,42.565,168.707,64.224,252.167,64.224
			c50.143,0,105.636-3.03,171.614-25.016C521.581,436.951,511.517,364.641,511.517,306.087z M258.201,46.012
			c44.109,0,79.995,35.886,79.995,79.995c0,44.109-35.886,79.995-79.995,79.995c-44.18,0-79.995-35.834-79.995-79.995
			C178.206,81.751,213.971,46.012,258.201,46.012z M443.489,442.003c-59.74,19.907-109.278,23.986-165.279,23.986
			c-84.197,0-174.756-23.024-242.249-61.591c-4.238-2.419-8.244-9.177-11.28-19.029c-8.941-29.022-4.558-41.274,10.245-68.885
			c34.095-63.555,75.877-122.63,124.347-175.952c3.104,21.192,12.939,40.873,28.175,56.13l-3.186,6.53
			c-17.934,36.682-11.015,68.69-11.013,70.324c2.229,15.471,4.34,32.027,4.69,48.285c0.272,12.201-0.456,22.811-2.228,32.435
			c-1.128,6.133,3.579,11.811,9.845,11.811c4.731,0,8.937-3.372,9.823-8.192c1.764-9.585,2.624-19.903,2.612-31.398
			c18.705-13.311,49.522-20.459,70.539-20.459c20.506,0,40.287,6.697,57.61,18.306c4.588,3.074,10.799,1.848,13.873-2.74
			c3.075-4.588,1.848-10.799-2.74-13.873c-3.164-2.121-6.409-4.103-9.708-5.935c28.6-45.02,81.912-62.682,119.761-53.383
			c16.504,4.054,44.191,16.943,44.191,57.715C491.517,366.258,500.446,422.938,443.489,442.003z"/>
	</g>
</g>
<g>
	<g>
		<path d="M414.628,419.668c-1.398-5.344-6.862-8.542-12.205-7.143c-45.227,11.832-86.432,13.463-124.222,13.463
			c-13.683,0-29.107-0.661-41.26-1.769c-5.509-0.507-10.365,3.551-10.866,9.05c-0.501,5.5,3.551,10.365,9.05,10.866
			c12.72,1.16,28.822,1.852,43.075,1.852c37.251,0,81.742-1.677,129.284-14.115C412.828,430.476,416.026,425.012,414.628,419.668z"
			/>
	</g>
</g>
<g>
	<g>
		<path d="M258.201,66.011c-33.082,0-59.996,26.914-59.996,59.997c0,33.082,26.914,59.996,59.996,59.996
			c33.082,0,59.996-26.914,59.996-59.996C318.197,92.926,291.283,66.011,258.201,66.011z M258.201,166.005
			c-22.055,0-39.998-17.943-39.998-39.998c0-22.055,17.943-39.998,39.998-39.998s39.998,17.943,39.998,39.998
			C298.199,148.062,280.256,166.005,258.201,166.005z"/>
	</g>
</g>
<g>
</g>
<g>
</g>
<g>
</g>
<g>
</g>
<g>
</g>
<g>
</g>
<g>
</g>
<g>
</g>
<g>
</g>
<g>
</g>
<g>
</g>
<g>
</g>
<g>
</g>
<g>
</g>
<g>
</g>
</svg>
