<?xml version="1.0" encoding="iso-8859-1"?>
<!-- Generator: Adobe Illustrator 19.0.0, SVG Export Plug-In . SVG Version: 6.00 Build 0)  -->
<svg version="1.1" id="Capa_1" xmlns="http://www.w3.org/2000/svg" xmlns:xlink="http://www.w3.org/1999/xlink" x="0px" y="0px"
	 viewBox="0 0 511.999 511.999" style="enable-background:new 0 0 511.999 511.999;" xml:space="preserve" fill ="#EDC580">
<g>
	<g>
		<path d="M509.758,2.235c-2.158-2.158-5.395-2.822-8.231-1.691L397.187,42.24c-1.075,0.431-2.038,1.098-2.818,1.956l-69.227,76.183
			c-2.836,3.121-2.605,7.949,0.516,10.785c3.121,2.836,7.949,2.605,10.785-0.516l68.043-74.881l68.194-27.252L171.469,329.726
			l-8.342-8.342l149.367-164.38c2.836-3.121,2.605-7.949-0.516-10.785s-7.949-2.605-10.785,0.516l-148.875,163.84l-1.447-1.445
			c-17.203-17.202-45.178-17.23-62.414-0.082c-0.749,0.745-1.374,1.625-1.764,2.607c-1.173,2.956-0.425,6.166,1.682,8.273
			l23.882,23.882c-32.149,22.428-59.674,50.053-81.988,82.302c-7.873-3.705-17.561-2.333-24.058,4.165
			c-8.274,8.275-8.274,21.74,0,30.016l45.491,45.491c5,5,12.058,7.199,19.265,5.804c2.465-0.477,4.835-1.419,6.954-2.767
			c9.675-6.157,12.303-17.872,7.962-27.096c32.25-22.313,59.876-49.839,82.303-81.988l23.758,23.758
			c0.752,0.752,1.624,1.393,2.61,1.791c2.965,1.195,6.196,0.451,8.312-1.666c8.369-8.368,12.968-19.502,12.943-31.341
			c-0.024-11.918-5.066-23.279-13.493-31.707l-0.896-0.896l29.441-26.753c3.121-2.836,3.352-7.664,0.516-10.785
			s-7.664-3.352-10.785-0.516l-29.982,27.243l-8.343-8.343L483.478,39.313l-27.25,68.183l-209.28,190.177
			c-3.121,2.836-3.351,7.664-0.516,10.785c2.836,3.121,7.664,3.352,10.785,0.516l210.582-191.36
			c0.857-0.779,1.526-1.742,1.954-2.818l41.695-104.33C512.583,7.632,511.917,4.394,509.758,2.235z M70.921,494.987
			c-1.124,1.124-2.62,1.744-4.21,1.744c-1.591,0-3.086-0.619-4.211-1.745l-45.491-45.49c-2.322-2.322-2.322-6.102,0-8.422
			c1.161-1.163,2.686-1.742,4.211-1.742c1.525,0,3.051,0.58,4.211,1.742l43.58,43.581l0.6,0.6l1.31,1.31
			C73.244,488.886,73.244,492.664,70.921,494.987z M75.97,470.017l-3.43-3.429l-30.564-30.565c3.136-4.578,6.395-9.048,9.748-13.431
			l37.677,37.677C85.019,463.623,80.549,466.881,75.97,470.017z M101.365,450.639l-40.009-40.01
			c4.197-4.961,8.534-9.79,13.024-14.468l41.454,41.454C111.154,442.105,106.325,446.442,101.365,450.639z M126.581,426.769
			l-41.355-41.356c4.714-4.45,9.564-8.763,14.56-12.919l39.715,39.715C135.345,417.205,131.032,422.055,126.581,426.769z
			 M149.04,400.153l-37.197-37.197c3.726-2.802,7.518-5.532,11.383-8.179l16.997,16.997l16.996,16.998
			C154.57,392.635,151.841,396.427,149.04,400.153z M192.068,371.921c5.463,5.462,8.471,12.725,8.471,20.452
			c0,5.11-1.316,10.019-3.789,14.337l-91.459-91.46c11.039-6.29,25.372-4.734,34.782,4.676L192.068,371.921z"/>
	</g>
</g>
<g>
</g>
<g>
</g>
<g>
</g>
<g>
</g>
<g>
</g>
<g>
</g>
<g>
</g>
<g>
</g>
<g>
</g>
<g>
</g>
<g>
</g>
<g>
</g>
<g>
</g>
<g>
</g>
<g>
</g>
</svg>
