<?xml version="1.0" encoding="iso-8859-1"?>
<!-- Generator: Adobe Illustrator 19.0.0, SVG Export Plug-In . SVG Version: 6.00 Build 0)  -->
<svg version="1.1" id="Capa_1" xmlns="http://www.w3.org/2000/svg" xmlns:xlink="http://www.w3.org/1999/xlink" x="0px" y="0px"
	 viewBox="0 0 512 512" style="enable-background:new 0 0 512 512;" xml:space="preserve" fill ="#EDC580" width="512" height = "400">
<g>
	<g>
		<g>
			<path d="M451.992,361.344L347.84,222.472l129.04,53.56l13.072-39.216L312,162.944v-9.6c0-17.648-14.352-32-32-32
				c-12.088,0-22.496,6.808-27.944,16.72L51.128,54.656L38.056,93.872L64,104.648v97.168c-35.952,3.992-64,34.528-64,71.528
				c0,39.704,32.296,72,72,72s72-32.296,72-72c0-37-28.056-67.536-64-71.528v-90.528l164.368,68.232L108,361.344H64v64h44.32
				c8.792,9.792,21.504,16,35.68,16c14.168,0,26.88-6.208,35.672-16H380.32c8.792,9.792,21.504,16,35.68,16
				c14.168,0,26.88-6.208,35.672-16H496v-64H451.992z M98.8,409.344H80v-32h18.8c-1.784,5.016-2.8,10.384-2.8,16
				C96,398.96,97.016,404.328,98.8,409.344z M470.056,245.872l-2.928,8.784l-138.16-57.352l-10.88-14.504L470.056,245.872z
				 M312,201.336l108.16,144.216c-1.376-0.112-2.752-0.208-4.16-0.208c-7.344,0-14.28,1.704-20.504,4.664L312,238.68V201.336z
				 M128,273.344c0,30.872-25.128,56-56,56s-56-25.128-56-56s25.128-56,56-56S128,242.472,128,273.344z M57.944,84.816l2.928-8.784
				L248,153.704v10L57.944,84.816z M248,201.336v16.008h16v-64c0-8.824,7.176-16,16-16c8.816,0,16,7.176,16,16v208h-32v-128h-16
				v5.336l-83.496,111.328c-6.224-2.96-13.16-4.664-20.504-4.664c-1.408,0-2.784,0.096-4.16,0.208L248,201.336z M144,425.344
				c-17.648,0-32-14.352-32-32s14.352-32,32-32s32,14.352,32,32S161.648,425.344,144,425.344z M177.64,359.16L248,265.336v96.008
				h-68.328C179.008,360.6,178.352,359.856,177.64,359.16z M370.8,409.344H189.2c1.776-5.016,2.8-10.384,2.8-16
				c0-5.616-1.024-10.984-2.8-16H248h64h58.8c-1.784,5.016-2.8,10.384-2.8,16C368,398.96,369.016,404.328,370.8,409.344z
				 M380.32,361.344H312v-96.008l70.36,93.816C381.648,359.856,380.992,360.6,380.32,361.344z M416,425.344
				c-17.648,0-32-14.352-32-32s14.352-32,32-32s32,14.352,32,32S433.648,425.344,416,425.344z M480,409.344h-18.8
				c1.776-5.016,2.8-10.384,2.8-16c0-5.616-1.024-10.984-2.8-16H480V409.344z"/>
			<path d="M32,273.344h16c0-13.232,10.768-24,24-24v-16C49.944,233.344,32,251.288,32,273.344z"/>
		</g>
	</g>
</g>
<g>
</g>
<g>
</g>
<g>
</g>
<g>
</g>
<g>
</g>
<g>
</g>
<g>
</g>
<g>
</g>
<g>
</g>
<g>
</g>
<g>
</g>
<g>
</g>
<g>
</g>
<g>
</g>
<g>
</g>
</svg>
